<svg width="100" height="20" fill="none" xmlns="http://www.w3.org/2000/svg"><g clip-path="url(#a)"><g clip-path="url(#b)"><path d="M16.912 13.456c.06.388-.067.552-.195.552s-.314-.158-.521-.47c-.207-.313-.278-.661-.178-.84a.287.287 0 0 1 .17-.126.298.298 0 0 1 .213.022c.341.124.475.63.51.862Zm-1.888.85c.41.335.535.733.318 1.013a.687.687 0 0 1-.55.238.998.998 0 0 1-.626-.218c-.37-.314-.48-.825-.237-1.114a.534.534 0 0 1 .434-.176c.245.008.479.099.661.257Zm-.684 3.23c1.762 0 3.674.585 5.791 2.4.211.18.493-.045.309-.27-2.08-2.54-4.008-3.025-5.922-3.433-2.346-.502-3.554-1.78-4.4-3.182-.166-.279-.242-.23-.257.13a7.655 7.655 0 0 0 .124 1.59H9.7a6.226 6.226 0 0 1-3.377-.992 5.927 5.927 0 0 1-2.239-2.639 5.701 5.701 0 0 1-.345-3.397A5.823 5.823 0 0 1 5.4 4.733a6.145 6.145 0 0 1 3.112-1.61 6.27 6.27 0 0 1 3.512.335 6.04 6.04 0 0 1 2.728 2.166 5.744 5.744 0 0 1 .986 3.95 9.38 9.38 0 0 0-1.93-.035c-.232.02-.198.13-.025.154 2.004.35 3.391 1.55 3.706 3.74a.053.053 0 0 0 .014.03.055.055 0 0 0 .062.014.055.055 0 0 0 .026-.021 8.658 8.658 0 0 0 1.24-5.608 8.78 8.78 0 0 0-2.554-5.176 9.31 9.31 0 0 0-5.29-2.59A9.46 9.46 0 0 0 5.165 1.15a9.001 9.001 0 0 0-3.94 4.286 8.625 8.625 0 0 0-.417 5.72 8.884 8.884 0 0 0 3.28 4.779A9.399 9.399 0 0 0 9.7 17.784c1.343.004 2.68-.25 4.641-.25v.002Z" fill="#3E9CDC"/></g></g><path d="M40.302 10.346c0 .438-.046.856-.137 1.255a4.7 4.7 0 0 1-.383 1.098 4.344 4.344 0 0 1-.618.923 4.18 4.18 0 0 1-.819.722l2.386 2.58h-1.04a1.24 1.24 0 0 1-.416-.065.83.83 0 0 1-.332-.228l-1.631-1.78a5.438 5.438 0 0 1-.774.181 5.142 5.142 0 0 1-.832.066 4.915 4.915 0 0 1-1.872-.345 4.23 4.23 0 0 1-1.45-.982 4.404 4.404 0 0 1-.935-1.501 5.403 5.403 0 0 1-.332-1.924c0-.698.11-1.337.332-1.918a4.392 4.392 0 0 1 .936-1.508 4.185 4.185 0 0 1 1.45-.987 4.835 4.835 0 0 1 1.871-.351c.685 0 1.31.117 1.872.35a4.17 4.17 0 0 1 1.456.988c.403.42.715.923.936 1.508.221.581.332 1.22.332 1.918Zm-1.294 0a4.73 4.73 0 0 0-.234-1.54 3.225 3.225 0 0 0-.663-1.151 2.858 2.858 0 0 0-1.04-.728 3.53 3.53 0 0 0-1.365-.253c-.498 0-.95.084-1.358.253a2.921 2.921 0 0 0-1.047.728 3.225 3.225 0 0 0-.663 1.15 4.734 4.734 0 0 0-.234 1.541c0 .572.078 1.085.234 1.54a3.3 3.3 0 0 0 .663 1.151c.29.312.64.552 1.047.721.407.165.86.248 1.358.248.503 0 .958-.083 1.365-.248a2.877 2.877 0 0 0 1.04-.721 3.3 3.3 0 0 0 .663-1.15c.156-.456.234-.969.234-1.541ZM43.361 15H42.1V5.686h1.26V15Zm1.394-9.314h1.047c.112 0 .206.028.28.084a.37.37 0 0 1 .149.215l1.924 6.474c.03.117.058.242.084.377.03.134.059.275.085.422.03-.147.06-.288.09-.422.035-.14.072-.265.111-.377l2.19-6.474a.463.463 0 0 1 .15-.202.422.422 0 0 1 .28-.098h.364a.42.42 0 0 1 .273.085.52.52 0 0 1 .156.215l2.184 6.474c.039.112.073.234.104.364.034.13.065.264.09.402l.079-.402a5.85 5.85 0 0 1 .084-.364l1.93-6.474a.412.412 0 0 1 .144-.208.442.442 0 0 1 .28-.091h.98L54.909 15h-1.13l-2.36-7.104a3.963 3.963 0 0 1-.13-.468 21.202 21.202 0 0 1-.124.468L48.792 15H47.66l-2.906-9.314ZM60.461 15h-1.26V5.686h1.26V15Zm4.734-6.585h.91c.09 0 .167.024.227.072a.345.345 0 0 1 .13.169l1.261 4.238c.035.152.068.301.098.448.03.143.056.287.078.43.035-.143.074-.287.117-.43.043-.147.089-.296.136-.448l1.391-4.264a.353.353 0 0 1 .11-.163.32.32 0 0 1 .202-.065h.507c.087 0 .159.022.215.066a.336.336 0 0 1 .117.162l1.358 4.264a24.225 24.225 0 0 1 .234.884c.026-.143.055-.286.085-.429.035-.147.071-.299.11-.455l1.287-4.238a.32.32 0 0 1 .124-.169.337.337 0 0 1 .214-.072h.871L72.845 15h-.916c-.113 0-.19-.074-.234-.221l-1.456-4.466a2.578 2.578 0 0 1-.085-.299 36.084 36.084 0 0 0-.065-.305c-.021.1-.045.202-.071.306a3.528 3.528 0 0 1-.078.305l-1.482 4.459c-.04.147-.126.221-.26.221h-.871l-2.132-6.585ZM80.214 15a.53.53 0 0 1-.26-.052c-.06-.039-.109-.113-.143-.221l-.13-.617a7.154 7.154 0 0 1-.514.422 2.663 2.663 0 0 1-1.099.5 3 3 0 0 1-.682.072 2.45 2.45 0 0 1-.721-.104 1.743 1.743 0 0 1-.592-.325 1.572 1.572 0 0 1-.396-.54 1.957 1.957 0 0 1-.143-.78c0-.26.071-.509.214-.747.143-.243.375-.457.696-.644.32-.186.739-.338 1.254-.455.516-.12 1.149-.19 1.898-.207v-.514c0-.511-.11-.897-.331-1.157-.221-.264-.544-.396-.969-.396-.286 0-.526.036-.721.11-.19.07-.358.15-.5.24a7.53 7.53 0 0 0-.365.241c-.1.07-.2.104-.299.104a.345.345 0 0 1-.201-.059.613.613 0 0 1-.143-.155l-.208-.371a3.76 3.76 0 0 1 1.176-.787c.42-.173.886-.26 1.398-.26.368 0 .695.061.981.182a2.009 2.009 0 0 1 1.164 1.294c.1.308.15.646.15 1.014V15h-.514Zm-2.483-.709c.203 0 .39-.019.559-.058.169-.043.327-.102.474-.176a2.52 2.52 0 0 0 .43-.279c.138-.113.272-.238.402-.377v-1.365c-.533.017-.988.06-1.365.13a3.844 3.844 0 0 0-.916.26c-.234.108-.405.236-.514.383a.837.837 0 0 0-.156.495c0 .173.028.322.085.448a.88.88 0 0 0 .227.312c.1.078.215.136.345.175.134.035.277.052.429.052Zm5.955-8.866V15h-1.157V5.425h1.157Zm3.072 0V15H85.6V5.425h1.157Zm4.574 2.887c.394 0 .758.067 1.092.201.338.13.628.32.87.572.248.247.44.555.58.923.138.364.207.78.207 1.248 0 .182-.02.303-.058.364-.04.06-.113.091-.221.091h-4.4c.008.416.064.778.168 1.085.104.308.247.566.43.774.181.204.398.357.65.461.25.1.532.15.844.15.29 0 .54-.032.748-.097a3.744 3.744 0 0 0 .923-.436.51.51 0 0 1 .266-.104c.096 0 .17.037.221.11l.325.423a2.262 2.262 0 0 1-.513.455c-.2.126-.414.23-.644.312-.225.082-.46.143-.702.182a4.101 4.101 0 0 1-.721.065c-.455 0-.876-.076-1.261-.227a2.856 2.856 0 0 1-.995-.677 3.162 3.162 0 0 1-.65-1.104c-.156-.438-.234-.94-.234-1.508 0-.46.07-.889.208-1.287a3.04 3.04 0 0 1 .611-1.034c.265-.295.587-.524.969-.689.381-.169.81-.253 1.287-.253Zm.026.851c-.56 0-1 .162-1.32.487-.32.321-.52.768-.598 1.34h3.601c0-.27-.039-.514-.117-.735a1.558 1.558 0 0 0-.331-.579 1.4 1.4 0 0 0-.527-.377 1.751 1.751 0 0 0-.708-.136Zm6.102 5.941c-.52 0-.92-.145-1.202-.435-.277-.29-.416-.709-.416-1.255v-4.03h-.793a.268.268 0 0 1-.176-.059c-.047-.043-.071-.108-.071-.194v-.462l1.079-.136.266-2.035a.276.276 0 0 1 .085-.156.26.26 0 0 1 .182-.065h.585v2.269h1.904v.838H97v3.952c0 .277.067.483.201.617a.704.704 0 0 0 .52.202.95.95 0 0 0 .546-.156c.065-.039.12-.074.163-.104.048-.035.089-.052.123-.052.061 0 .115.037.163.11l.338.553c-.2.186-.44.334-.722.442a2.495 2.495 0 0 1-.87.156Z" fill="#C3C3C3"/><defs><clipPath id="a"><path fill="#fff" transform="translate(.5)" d="M0 0h20v20H0z"/></clipPath><clipPath id="b"><path fill="#fff" transform="translate(.5)" d="M0 0h20v20H0z"/></clipPath></defs></svg>