<svg width="116" height="20" fill="none" xmlns="http://www.w3.org/2000/svg"><path fill-rule="evenodd" clip-rule="evenodd" d="M3.78 9.93c0-.983.083-1.608 2.138-3.13 1.701-1.259 7.155-5.563 7.155-5.563v7.185h4.147v10.34H5.075a1.294 1.294 0 0 1-1.295-1.284V9.93Z" fill="#3E9CDC"/><path fill-rule="evenodd" clip-rule="evenodd" d="M13.073 8.422v4.163l-7.62 5.148 9.634-3.108V8.422h-2.014Z" fill="#000" fill-opacity=".2"/><path fill-rule="evenodd" clip-rule="evenodd" d="M9.59 8.207c.446-.527 1.097-.713 1.454-.415.358.297.286.965-.16 1.492-.445.526-1.096.712-1.453.415-.358-.298-.286-.966.16-1.492Z" fill="#231F20"/><path d="M35.186 11.289V15h-1.26v-3.711l-3.413-5.603h1.105c.113 0 .201.028.266.084a.682.682 0 0 1 .17.208l2.131 3.62c.078.152.148.295.208.43.065.13.122.26.17.39a8.632 8.632 0 0 1 .37-.82l2.125-3.62a.71.71 0 0 1 .163-.201.39.39 0 0 1 .266-.091H38.6l-3.413 5.603ZM42.267 15a.53.53 0 0 1-.26-.052c-.06-.039-.108-.113-.142-.221l-.13-.617a7.154 7.154 0 0 1-.514.422 2.663 2.663 0 0 1-1.098.5 3 3 0 0 1-.683.072c-.256 0-.496-.035-.721-.104a1.743 1.743 0 0 1-.592-.325 1.572 1.572 0 0 1-.397-.54 1.957 1.957 0 0 1-.142-.78c0-.26.071-.509.214-.747.143-.243.375-.457.696-.644.32-.186.738-.338 1.254-.455.516-.12 1.148-.19 1.898-.207v-.514c0-.511-.11-.897-.331-1.157-.222-.264-.544-.396-.969-.396-.286 0-.526.036-.721.11-.191.07-.358.15-.501.24-.139.087-.26.167-.364.241-.1.07-.2.104-.299.104a.345.345 0 0 1-.202-.059.613.613 0 0 1-.142-.155l-.209-.371a3.76 3.76 0 0 1 1.177-.787c.42-.173.886-.26 1.398-.26.368 0 .695.061.981.182.286.122.526.29.721.508.196.216.343.478.443.786.1.308.149.646.149 1.014V15h-.514Zm-2.483-.709c.204 0 .39-.019.56-.058.169-.043.327-.102.474-.176a2.52 2.52 0 0 0 .429-.279c.139-.113.273-.238.403-.377v-1.365c-.533.017-.988.06-1.365.13a3.844 3.844 0 0 0-.916.26c-.234.108-.406.236-.514.383a.837.837 0 0 0-.156.495c0 .173.028.322.084.448a.88.88 0 0 0 .228.312c.1.078.214.136.344.175.135.035.278.052.43.052Zm4.76.709V8.415h.695c.165 0 .266.08.305.241l.091.715a3.68 3.68 0 0 1 .962-.767 2.512 2.512 0 0 1 1.229-.292c.36 0 .676.06.949.181.277.117.507.287.689.508.186.216.327.478.422.786.096.308.143.648.143 1.02V15h-1.163v-4.193c0-.498-.115-.883-.345-1.157-.225-.277-.57-.415-1.033-.415-.347 0-.67.082-.969.247a3.083 3.083 0 0 0-.812.669V15h-1.164Zm12.006 0c-.164 0-.268-.08-.312-.24l-.104-.8a3.498 3.498 0 0 1-.968.825c-.36.204-.774.306-1.242.306-.377 0-.719-.071-1.027-.214a2.16 2.16 0 0 1-.786-.644 3.05 3.05 0 0 1-.5-1.053 5.421 5.421 0 0 1-.176-1.45c0-.485.065-.936.195-1.351.13-.42.316-.785.559-1.092a2.57 2.57 0 0 1 .89-.722 2.637 2.637 0 0 1 1.196-.266c.403 0 .748.069 1.034.208.29.134.548.325.773.572V5.425h1.157V15h-.689Zm-2.249-.845c.382 0 .713-.087.995-.26.286-.173.548-.418.786-.734V9.982c-.216-.286-.45-.487-.702-.604a1.978 1.978 0 0 0-.845-.176c-.61 0-1.08.219-1.41.656-.33.438-.494 1.062-.494 1.872 0 .43.037.798.11 1.105.074.304.182.555.325.754.143.195.319.338.527.43.208.09.444.136.708.136Zm7.463-5.843c.395 0 .759.067 1.092.201.338.13.629.32.871.572.247.247.44.555.579.923.139.364.208.78.208 1.248 0 .182-.02.303-.059.364-.039.06-.112.091-.22.091h-4.401c.008.416.065.778.169 1.085.104.308.247.566.429.774.182.204.398.357.65.461.251.1.533.15.845.15.29 0 .54-.032.747-.097a3.734 3.734 0 0 0 .923-.436.51.51 0 0 1 .267-.104c.095 0 .169.037.22.11l.326.423a2.26 2.26 0 0 1-.514.455c-.199.126-.413.23-.643.312-.225.082-.46.143-.702.182a4.1 4.1 0 0 1-.722.065c-.455 0-.875-.076-1.26-.227a2.856 2.856 0 0 1-.995-.677 3.162 3.162 0 0 1-.65-1.104c-.156-.438-.234-.94-.234-1.508 0-.46.07-.889.208-1.287a3.04 3.04 0 0 1 .61-1.034c.265-.295.588-.524.97-.689.38-.169.81-.253 1.286-.253Zm.026.851c-.559 0-.998.162-1.32.487-.32.321-.52.768-.597 1.34h3.6c0-.27-.038-.514-.116-.735a1.556 1.556 0 0 0-.332-.579A1.4 1.4 0 0 0 62.5 9.3a1.751 1.751 0 0 0-.709-.136Zm5.597 2.463-2.217-3.21h1.112c.095 0 .164.015.208.045a.43.43 0 0 1 .117.13l1.612 2.47c.039-.121.095-.243.169-.364l1.417-2.08a.589.589 0 0 1 .123-.143.259.259 0 0 1 .17-.059h1.065l-2.216 3.147L71.254 15h-1.111a.34.34 0 0 1-.228-.072.8.8 0 0 1-.13-.169l-1.657-2.58c-.03.126-.076.238-.137.338l-1.534 2.242c-.043.061-.09.117-.143.17a.272.272 0 0 1-.201.071h-1.034l2.308-3.373Zm13.115.007c.052.104.102.215.15.332l.143.338c.043-.118.089-.232.136-.345.048-.117.1-.228.156-.332l3.16-5.726c.051-.1.108-.16.168-.182a.872.872 0 0 1 .267-.032h.93V15h-1.106V8.155a7.108 7.108 0 0 1 .026-.61l-3.191 5.823c-.1.195-.251.293-.455.293h-.182c-.204 0-.355-.098-.455-.293l-3.263-5.843c.013.113.022.223.026.331.009.109.013.209.013.3V15H75.92V5.686h.93c.112 0 .199.01.26.032.06.022.119.082.175.182l3.217 5.733Zm9.79-3.321c.481 0 .915.08 1.3.24.386.16.716.388.989.683.272.294.48.652.623 1.072.148.416.222.882.222 1.397 0 .52-.074.989-.222 1.404a2.963 2.963 0 0 1-.623 1.066 2.785 2.785 0 0 1-.989.683 3.44 3.44 0 0 1-1.3.234c-.485 0-.922-.078-1.313-.234a2.786 2.786 0 0 1-.987-.682 3.04 3.04 0 0 1-.631-1.067 4.303 4.303 0 0 1-.215-1.404c0-.515.072-.981.215-1.397a3.03 3.03 0 0 1 .63-1.072 2.78 2.78 0 0 1 .989-.683c.39-.16.827-.24 1.313-.24Zm0 5.876c.65 0 1.136-.217 1.457-.65.32-.438.48-1.047.48-1.827 0-.784-.16-1.395-.48-1.833-.321-.438-.806-.656-1.456-.656-.33 0-.618.056-.865.168a1.634 1.634 0 0 0-.611.488 2.24 2.24 0 0 0-.364.787 4.27 4.27 0 0 0-.117 1.046c0 .78.16 1.389.481 1.826.325.434.817.65 1.476.65Zm4.601.812V8.415h.695c.165 0 .267.08.306.241l.091.715a3.68 3.68 0 0 1 .962-.767 2.512 2.512 0 0 1 1.228-.292c.36 0 .677.06.95.181.277.117.507.287.689.508.186.216.327.478.422.786.095.308.143.648.143 1.02V15h-1.163v-4.193c0-.498-.115-.883-.345-1.157-.225-.277-.57-.415-1.033-.415-.347 0-.67.082-.969.247a3.083 3.083 0 0 0-.813.669V15h-1.163Zm9.947-6.688a2.9 2.9 0 0 1 1.092.201c.338.13.628.32.871.572.247.247.439.555.578.923.139.364.208.78.208 1.248 0 .182-.019.303-.058.364-.039.06-.113.091-.221.091h-4.401c.009.416.065.778.169 1.085.104.308.247.566.429.774.182.204.399.357.65.461.251.1.533.15.845.15.29 0 .54-.032.748-.097a3.771 3.771 0 0 0 .923-.436.508.508 0 0 1 .266-.104c.095 0 .169.037.221.11l.325.423a2.266 2.266 0 0 1-.513.455c-.2.126-.414.23-.644.312a3.784 3.784 0 0 1-.702.182 4.101 4.101 0 0 1-.721.065c-.455 0-.876-.076-1.261-.227a2.854 2.854 0 0 1-.995-.677 3.167 3.167 0 0 1-.65-1.104c-.156-.438-.234-.94-.234-1.508 0-.46.069-.889.208-1.287.143-.4.347-.744.611-1.034.264-.295.587-.524.969-.689.381-.169.81-.253 1.287-.253Zm.026.851c-.559 0-.999.162-1.32.487-.321.321-.52.768-.598 1.34h3.601c0-.27-.039-.514-.117-.735a1.566 1.566 0 0 0-.331-.579 1.401 1.401 0 0 0-.527-.377 1.75 1.75 0 0 0-.708-.136Zm5.988 7.78a.58.58 0 0 1-.15.208c-.056.052-.145.079-.266.079h-.858l1.202-2.614-2.717-6.2h1.001c.1 0 .178.025.234.077a.365.365 0 0 1 .124.163l1.761 4.147c.035.1.067.197.098.292.03.091.056.187.078.287.056-.195.121-.39.195-.585l1.709-4.141a.356.356 0 0 1 .13-.169.356.356 0 0 1 .215-.072h.916l-3.672 8.529Z" fill="#C3C3C3"/></svg>