<svg width="102" height="20" fill="none" xmlns="http://www.w3.org/2000/svg"><g clip-path="url(#a)"><path d="M9.34 0a9.12 9.12 0 0 1 3.957.901c.189.085.379.187.567.29l-.826.73L11.801.647l-2.133 1.87-1.256-1.343L4.49 4.66l2.511 2.737-.98.85 2.477 2.738-.98.85 3.543 3.893 2.098-1.904 1.824 2.04c-.362.273-.758.546-1.187.783a9.07 9.07 0 0 1-4.438 1.156c-4.971 0-9.012-3.995-9.012-8.909C.328 4.013 4.37 0 9.34 0ZM7.69 8.349l2.15-1.905 1.926 2.126-2.15 1.904-1.927-2.125Zm1.53 3.672 2.133-1.92 1.944 2.124-2.15 1.905-1.927-2.11ZM6.16 4.727l2.149-1.904 1.926 2.125-2.15 1.904L6.16 4.727Zm3.937-1.02 1.6-1.429 1.445 1.582-1.6 1.445-1.445-1.598Zm2.856 6.546 1.6-1.428 1.444 1.597-1.6 1.43-1.444-1.6Zm1.41 3.214 1.6-1.429 1.444 1.582-1.6 1.444-1.444-1.597Zm.654-7.346 1.066-.952.963 1.054-1.066.952-.963-1.054ZM13.64 2.975l1.066-.968.964 1.07-1.067.953-.963-1.055Zm2.734 6.292 1.067-.952.98 1.054-1.083.952-.963-1.054Zm-4.798-2.364 1.6-1.428 1.444 1.581-1.599 1.429-1.445-1.582Z" fill="#3E9CDC"/></g><path d="M30.701 5.686h1.047a.45.45 0 0 1 .28.084.37.37 0 0 1 .149.215l1.924 6.474c.03.117.059.242.084.377.03.134.059.275.085.422.03-.147.06-.288.091-.422a4.49 4.49 0 0 1 .11-.377l2.191-6.474a.463.463 0 0 1 .15-.202.423.423 0 0 1 .279-.098h.364a.42.42 0 0 1 .273.085.52.52 0 0 1 .156.215l2.184 6.474c.039.112.074.234.104.364.035.13.065.264.091.402l.078-.402a5.85 5.85 0 0 1 .084-.364l1.931-6.474a.412.412 0 0 1 .143-.208.442.442 0 0 1 .28-.091h.981L40.855 15h-1.131l-2.36-7.104a3.925 3.925 0 0 1-.13-.468 21.175 21.175 0 0 1-.123.468L34.738 15h-1.131l-2.905-9.314Zm16.134 2.626c.394 0 .758.067 1.092.201.338.13.628.32.87.572.248.247.44.555.58.923.138.364.207.78.207 1.248 0 .182-.02.303-.058.364-.04.06-.113.091-.221.091h-4.4c.008.416.064.778.168 1.085.104.308.247.566.43.774.181.204.398.357.65.461.25.1.532.15.844.15.29 0 .54-.032.748-.097a3.744 3.744 0 0 0 .923-.436.51.51 0 0 1 .266-.104c.096 0 .17.037.221.11l.325.423a2.262 2.262 0 0 1-.513.455c-.2.126-.414.23-.644.312-.225.082-.46.143-.702.182a4.101 4.101 0 0 1-.721.065c-.455 0-.876-.076-1.261-.227a2.856 2.856 0 0 1-.995-.677 3.162 3.162 0 0 1-.65-1.104c-.156-.438-.234-.94-.234-1.508 0-.46.07-.889.208-1.287a3.04 3.04 0 0 1 .611-1.034c.264-.295.587-.524.969-.689.381-.169.81-.253 1.287-.253Zm.026.851c-.56 0-1 .162-1.32.487-.32.321-.52.768-.598 1.34h3.601c0-.27-.039-.514-.117-.735a1.558 1.558 0 0 0-.331-.579 1.4 1.4 0 0 0-.527-.377 1.751 1.751 0 0 0-.708-.136ZM51.005 15V5.425h1.164v3.946c.273-.325.585-.583.936-.774.35-.19.754-.285 1.209-.285.386 0 .732.073 1.04.22.312.148.576.362.793.644.217.277.381.615.494 1.014.117.399.175.847.175 1.346 0 .533-.065 1.018-.195 1.456a3.31 3.31 0 0 1-.565 1.124 2.57 2.57 0 0 1-.89.722 2.692 2.692 0 0 1-1.184.253c-.433 0-.8-.08-1.098-.24a2.445 2.445 0 0 1-.774-.696l-.058.598c-.035.165-.135.247-.3.247h-.747Zm2.925-5.765c-.377 0-.706.086-.988.26a2.79 2.79 0 0 0-.773.734v3.185c.212.286.444.488.695.604.256.117.536.176.839.176.62 0 1.094-.219 1.423-.657.33-.437.494-1.09.494-1.956 0-.806-.147-1.397-.442-1.774-.29-.382-.706-.572-1.248-.572Zm12.532 2.398c.051.104.101.215.149.332l.143.338c.043-.118.089-.232.136-.345.048-.117.1-.228.156-.332l3.16-5.726c.051-.1.108-.16.168-.182a.872.872 0 0 1 .267-.032h.93V15h-1.105V8.155a6.935 6.935 0 0 1 .026-.61L67.3 13.367c-.1.195-.251.293-.455.293h-.182c-.204 0-.355-.098-.455-.293l-3.263-5.843c.013.113.022.223.026.331.009.109.013.209.013.3V15h-1.105V5.686h.93c.112 0 .199.01.26.032.06.022.119.082.175.182l3.218 5.733Zm9.79-3.321c.48 0 .914.08 1.3.24.385.16.715.388.988.683.273.294.48.652.624 1.072.147.416.22.882.22 1.397 0 .52-.073.989-.22 1.404a2.963 2.963 0 0 1-.624 1.066 2.786 2.786 0 0 1-.988.683 3.44 3.44 0 0 1-1.3.234c-.486 0-.923-.078-1.313-.234a2.785 2.785 0 0 1-.988-.682 3.039 3.039 0 0 1-.63-1.067 4.303 4.303 0 0 1-.215-1.404c0-.515.071-.981.214-1.397.147-.42.358-.778.63-1.072.274-.295.603-.523.989-.683.39-.16.827-.24 1.313-.24Zm0 5.876c.65 0 1.135-.217 1.456-.65.32-.438.48-1.047.48-1.827 0-.784-.16-1.395-.48-1.833-.321-.438-.806-.656-1.456-.656-.33 0-.618.056-.865.168a1.632 1.632 0 0 0-.61.488 2.213 2.213 0 0 0-.365.787 4.27 4.27 0 0 0-.117 1.046c0 .78.16 1.389.481 1.826.325.434.817.65 1.476.65Zm4.6.812V8.415h.695c.165 0 .267.08.306.241l.091.715a3.68 3.68 0 0 1 .962-.767 2.513 2.513 0 0 1 1.228-.292c.36 0 .677.06.95.181.277.117.507.287.688.508.187.216.328.478.423.786.095.308.143.648.143 1.02V15h-1.163v-4.193c0-.498-.115-.883-.345-1.157-.225-.277-.57-.415-1.034-.415-.346 0-.669.082-.968.247a3.085 3.085 0 0 0-.813.669V15h-1.163Zm9.947-6.688c.394 0 .758.067 1.092.201.338.13.628.32.87.572.248.247.44.555.58.923.138.364.207.78.207 1.248 0 .182-.02.303-.058.364-.04.06-.113.091-.221.091h-4.4c.008.416.064.778.168 1.085.104.308.247.566.43.774.181.204.398.357.65.461.25.1.532.15.844.15.29 0 .54-.032.748-.097a3.744 3.744 0 0 0 .923-.436.51.51 0 0 1 .266-.104c.095 0 .17.037.221.11l.325.423a2.262 2.262 0 0 1-.513.455c-.2.126-.414.23-.644.312a3.8 3.8 0 0 1-.702.182 4.101 4.101 0 0 1-.721.065c-.455 0-.876-.076-1.261-.227a2.854 2.854 0 0 1-.995-.677 3.16 3.16 0 0 1-.65-1.104c-.156-.438-.234-.94-.234-1.508 0-.46.07-.889.208-1.287.143-.4.347-.744.611-1.034.264-.295.587-.524.969-.689.38-.169.81-.253 1.287-.253Zm.026.851c-.56 0-1 .162-1.32.487-.32.321-.52.768-.598 1.34h3.601c0-.27-.039-.514-.117-.735a1.558 1.558 0 0 0-.331-.579 1.4 1.4 0 0 0-.527-.377 1.751 1.751 0 0 0-.708-.136Zm5.988 7.78a.583.583 0 0 1-.15.208c-.056.052-.145.079-.266.079h-.858l1.202-2.614-2.717-6.2h1.001c.1 0 .178.025.234.077.06.048.102.102.124.163l1.761 4.147c.035.1.067.197.098.292.03.091.056.187.078.287.056-.195.121-.39.195-.585l1.71-4.141a.358.358 0 0 1 .13-.169.355.355 0 0 1 .214-.072h.916l-3.672 8.529Z" fill="#C3C3C3"/><defs><clipPath id="a"><path fill="#fff" transform="translate(.5)" d="M0 0h20v20H0z"/></clipPath></defs></svg>